ISO-10303-21;
HEADER;
FILE_DESCRIPTION (( 'STEP AP203' ),
    '1' );
FILE_NAME ('MiniPal_finished_robot.step',
    '2026-05-03T13:28:46',
    ( '' ),
    ( '' ),
    'SwSTEP 2.0',
    'SolidWorks 2022',
    '' );
FILE_SCHEMA (( 'CONFIG_CONTROL_DESIGN' ));
ENDSEC;

DATA;
#1 = VECTOR ( 'NONE', #82, 1000.000000000000000 ) ;
#2 =( NAMED_UNIT ( * ) SI_UNIT ( $, .STERADIAN. ) SOLID_ANGLE_UNIT ( ) );
#3 = APPLICATION_CONTEXT ( 'configuration controlled 3d designs of mechanical parts and assemblies' ) ;
#4 = CC_DESIGN_DATE_AND_TIME_ASSIGNMENT ( #190, #222, ( #162 ) ) ;
#5 = LINE ( 'NONE', #174, #57 ) ;
#6 = CALENDAR_DATE ( 2026, 3, 5 ) ;
#7 = DIRECTION ( 'NONE',  ( -1.000000000000000000, -0.000000000000000000, -0.000000000000000000 ) ) ;
#8 = EDGE_CURVE ( 'NONE', #135, #117, #98, .T. ) ;
#9 = DIRECTION ( 'NONE',  ( 0.000000000000000000, 0.000000000000000000, -1.000000000000000000 ) ) ;
#10 = VECTOR ( 'NONE', #30, 1000.000000000000000 ) ;
#11 = DIRECTION ( 'NONE',  ( 1.000000000000000000, 0.000000000000000000, 0.000000000000000000 ) ) ;
#12 = PERSON ( '未指定', '未指定', '未指定', ('未指定'), ('未指定'), ('未指定') ) ;
#13 = ORIENTED_EDGE ( 'NONE', *, *, #121, .T. ) ;
#14 = DIRECTION ( 'NONE',  ( -0.000000000000000000, -1.000000000000000000, -0.000000000000000000 ) ) ;
#15 = LOCAL_TIME ( 21, 28, 46.00000000000000000, #187 ) ;
#16 = APPROVAL_ROLE ( '' ) ;
#17 = UNCERTAINTY_MEASURE_WITH_UNIT (LENGTH_MEASURE( 1.000000000000000082E-05 ), #39, 'distance_accuracy_value', 'NONE');
#18 = CARTESIAN_POINT ( 'NONE',  ( 0.000000000000000000, 0.000000000000000000, 0.000000000000000000 ) ) ;
#19 = PRODUCT_RELATED_PRODUCT_CATEGORY ( 'detail', '', ( #119 ) ) ;
#20 = CARTESIAN_POINT ( 'NONE',  ( 50.00000000000000000, -56.00000000000000000, -44.00000000000000000 ) ) ;
#21 = DIRECTION ( 'NONE',  ( 1.000000000000000000, 0.000000000000000000, 0.000000000000000000 ) ) ;
#22 = VECTOR ( 'NONE', #208, 1000.000000000000000 ) ;
#23 = APPROVAL_ROLE ( '' ) ;
#24 = PERSON_AND_ORGANIZATION_ROLE ( 'classification_officer' ) ;
#25 = DATE_TIME_ROLE ( 'creation_date' ) ;
#26 = CARTESIAN_POINT ( 'NONE',  ( -50.00000000000000000, -58.00000000000000000, -44.00000000000000000 ) ) ;
#27 = APPROVAL_DATE_TIME ( #170, #70 ) ;
#28 = CARTESIAN_POINT ( 'NONE',  ( 50.00000000000000000, -56.00000000000000000, -44.00000000000000000 ) ) ;
#29 = CARTESIAN_POINT ( 'NONE',  ( -50.00000000000000000, -58.00000000000000000, -44.00000000000000000 ) ) ;
#30 = DIRECTION ( 'NONE',  ( -0.000000000000000000, -1.000000000000000000, -0.000000000000000000 ) ) ;
#31 = CC_DESIGN_DATE_AND_TIME_ASSIGNMENT ( #145, #25, ( #81 ) ) ;
#32 = AXIS2_PLACEMENT_3D ( 'NONE', #43, #192, #134 ) ;
#33 = APPLICATION_CONTEXT ( 'configuration controlled 3d designs of mechanical parts and assemblies' ) ;
#34 = VERTEX_POINT ( 'NONE', #223 ) ;
#35 = APPROVAL_STATUS ( 'not_yet_approved' ) ;
#36 = APPROVAL_DATE_TIME ( #216, #182 ) ;
#37 = CC_DESIGN_SECURITY_CLASSIFICATION ( #162, ( #127 ) ) ;
#38 = PLANE ( 'NONE',  #62 ) ;
#39 =( LENGTH_UNIT ( ) NAMED_UNIT ( * ) SI_UNIT ( .MILLI., .METRE. ) );
#40 = CC_DESIGN_PERSON_AND_ORGANIZATION_ASSIGNMENT ( #87, #163, ( #81 ) ) ;
#41 = VECTOR ( 'NONE', #210, 1000.000000000000000 ) ;
#42 = PERSON_AND_ORGANIZATION_ROLE ( 'design_supplier' ) ;
#43 = CARTESIAN_POINT ( 'NONE',  ( -50.00000000000000000, -56.00000000000000000, -44.00000000000000000 ) ) ;
#44 = PERSON_AND_ORGANIZATION_ROLE ( 'creator' ) ;
#45 = EDGE_LOOP ( 'NONE', ( #133, #86, #160, #54 ) ) ;
#46 = ORIENTED_EDGE ( 'NONE', *, *, #91, .F. ) ;
#47 = CARTESIAN_POINT ( 'NONE',  ( -50.00000000000000000, -56.00000000000000000, -44.00000000000000000 ) ) ;
#48 = ADVANCED_FACE ( 'NONE', ( #50 ), #97, .T. ) ;
#49 = ORIENTED_EDGE ( 'NONE', *, *, #89, .T. ) ;
#50 = FACE_OUTER_BOUND ( 'NONE', #193, .T. ) ;
#51 = LOCAL_TIME ( 21, 28, 46.00000000000000000, #171 ) ;
#52 = APPLICATION_PROTOCOL_DEFINITION ( 'international standard', 'config_control_design', 1994, #33 ) ;
#53 = CARTESIAN_POINT ( 'NONE',  ( 0.000000000000000000, 0.000000000000000000, -44.00000000000000000 ) ) ;
#54 = ORIENTED_EDGE ( 'NONE', *, *, #8, .T. ) ;
#55 = EDGE_CURVE ( 'NONE', #234, #135, #206, .T. ) ;
#56 = LOCAL_TIME ( 21, 28, 46.00000000000000000, #224 ) ;
#57 = VECTOR ( 'NONE', #140, 1000.000000000000000 ) ;
#58 = EDGE_CURVE ( 'NONE', #117, #141, #66, .T. ) ;
#59 = CARTESIAN_POINT ( 'NONE',  ( 50.00000000000000000, -58.00000000000000000, -44.00000000000000000 ) ) ;
#60 = LINE ( 'NONE', #59, #157 ) ;
#61 = APPROVAL_STATUS ( 'not_yet_approved' ) ;
#62 = AXIS2_PLACEMENT_3D ( 'NONE', #53, #69, #184 ) ;
#63 = LINE ( 'NONE', #28, #166 ) ;
#64 = PLANE ( 'NONE',  #32 ) ;
#65 = CARTESIAN_POINT ( 'NONE',  ( -50.00000000000000000, -58.00000000000000000, -44.00000000000000000 ) ) ;
#66 = LINE ( 'NONE', #156, #10 ) ;
#67 = CARTESIAN_POINT ( 'NONE',  ( -50.00000000000000000, -56.00000000000000000, -46.00000000000000000 ) ) ;
#68 = EDGE_LOOP ( 'NONE', ( #144, #46, #197, #71 ) ) ;
#69 = DIRECTION ( 'NONE',  ( 0.000000000000000000, 0.000000000000000000, -1.000000000000000000 ) ) ;
#70 = APPROVAL ( #108, '未指定' ) ;
#71 = ORIENTED_EDGE ( 'NONE', *, *, #148, .T. ) ;
#72 = CALENDAR_DATE ( 2026, 3, 5 ) ;
#73 = ADVANCED_FACE ( 'NONE', ( #229 ), #64, .F. ) ;
#74 = AXIS2_PLACEMENT_3D ( 'NONE', #26, #94, #173 ) ;
#75 = DIRECTION ( 'NONE',  ( 0.000000000000000000, 0.000000000000000000, 1.000000000000000000 ) ) ;
#76 = APPLICATION_PROTOCOL_DEFINITION ( 'international standard', 'config_control_design', 1994, #3 ) ;
#77 = DATE_AND_TIME ( #6, #51 ) ;
#78 = LOCAL_TIME ( 21, 28, 46.00000000000000000, #181 ) ;
#79 = CARTESIAN_POINT ( 'NONE',  ( -50.00000000000000000, -56.00000000000000000, -44.00000000000000000 ) ) ;
#80 = CARTESIAN_POINT ( 'NONE',  ( -50.00000000000000000, -56.00000000000000000, -44.00000000000000000 ) ) ;
#81 = PRODUCT_DEFINITION ( '未知', '', #127, #125 ) ;
#82 = DIRECTION ( 'NONE',  ( -1.000000000000000000, -0.000000000000000000, -0.000000000000000000 ) ) ;
#83 = VECTOR ( 'NONE', #129, 1000.000000000000000 ) ;
#84 = ORIENTED_EDGE ( 'NONE', *, *, #101, .T. ) ;
#85 = ORIENTED_EDGE ( 'NONE', *, *, #231, .F. ) ;
#86 = ORIENTED_EDGE ( 'NONE', *, *, #121, .F. ) ;
#87 = PERSON_AND_ORGANIZATION ( #12, #176 ) ;
#88 = DIRECTION ( 'NONE',  ( 0.000000000000000000, 0.000000000000000000, 1.000000000000000000 ) ) ;
#89 = EDGE_CURVE ( 'NONE', #213, #234, #180, .T. ) ;
#90 = CARTESIAN_POINT ( 'NONE',  ( -50.00000000000000000, -58.00000000000000000, -44.00000000000000000 ) ) ;
#91 = EDGE_CURVE ( 'NONE', #234, #34, #63, .T. ) ;
#92 = PERSON_AND_ORGANIZATION ( #12, #176 ) ;
#93 = PERSON_AND_ORGANIZATION ( #12, #176 ) ;
#94 = DIRECTION ( 'NONE',  ( 0.000000000000000000, 1.000000000000000000, 0.000000000000000000 ) ) ;
#95 = CALENDAR_DATE ( 2026, 3, 5 ) ;
#96 = LINE ( 'NONE', #211, #146 ) ;
#97 = PLANE ( 'NONE',  #132 ) ;
#98 = LINE ( 'NONE', #80, #22 ) ;
#99 = CLOSED_SHELL ( 'NONE', ( #164, #73, #104, #103, #205, #48 ) ) ;
#100 = CARTESIAN_POINT ( 'NONE',  ( 0.000000000000000000, 0.000000000000000000, -46.00000000000000000 ) ) ;
#101 = EDGE_CURVE ( 'NONE', #34, #117, #96, .T. ) ;
#102 = DIRECTION ( 'NONE',  ( -0.000000000000000000, -0.000000000000000000, -1.000000000000000000 ) ) ;
#103 = ADVANCED_FACE ( 'NONE', ( #189 ), #194, .F. ) ;
#104 = ADVANCED_FACE ( 'NONE', ( #230 ), #177, .F. ) ;
#105 = CARTESIAN_POINT ( 'NONE',  ( 50.00000000000000000, -58.00000000000000000, -44.00000000000000000 ) ) ;
#106 = APPROVAL_PERSON_ORGANIZATION ( #149, #70, #23 ) ;
#107 =( GEOMETRIC_REPRESENTATION_CONTEXT ( 3 ) GLOBAL_UNCERTAINTY_ASSIGNED_CONTEXT ( ( #17 ) ) GLOBAL_UNIT_ASSIGNED_CONTEXT ( ( #39, #118, #2 ) ) REPRESENTATION_CONTEXT ( 'NONE', 'WORKASPACE' ) );
#108 = APPROVAL_STATUS ( 'not_yet_approved' ) ;
#109 = ORIENTED_EDGE ( 'NONE', *, *, #55, .F. ) ;
#110 = SECURITY_CLASSIFICATION_LEVEL ( 'unclassified' ) ;
#111 = CARTESIAN_POINT ( 'NONE',  ( -50.00000000000000000, -58.00000000000000000, -44.00000000000000000 ) ) ;
#112 = ORIENTED_EDGE ( 'NONE', *, *, #158, .F. ) ;
#113 = CARTESIAN_POINT ( 'NONE',  ( -50.00000000000000000, -58.00000000000000000, -46.00000000000000000 ) ) ;
#114 = EDGE_LOOP ( 'NONE', ( #49, #151, #138, #115 ) ) ;
#115 = ORIENTED_EDGE ( 'NONE', *, *, #130, .T. ) ;
#116 = PERSON_AND_ORGANIZATION ( #12, #176 ) ;
#117 = VERTEX_POINT ( 'NONE', #67 ) ;
#118 =( NAMED_UNIT ( * ) PLANE_ANGLE_UNIT ( ) SI_UNIT ( $, .RADIAN. ) );
#119 = PRODUCT ( 'MiniPal_finished_robot', 'MiniPal_finished_robot', '', ( #165 ) ) ;
#120 = ORIENTED_EDGE ( 'NONE', *, *, #101, .F. ) ;
#121 = EDGE_CURVE ( 'NONE', #142, #141, #5, .T. ) ;
#122 = LINE ( 'NONE', #200, #83 ) ;
#123 = AXIS2_PLACEMENT_3D ( 'NONE', #18, #88, #21 ) ;
#124 = MANIFOLD_SOLID_BREP ( 'bottom dimension marker 100mm', #99 ) ;
#125 = DESIGN_CONTEXT ( 'detailed design', #33, 'design' ) ;
#126 = CC_DESIGN_PERSON_AND_ORGANIZATION_ASSIGNMENT ( #153, #42, ( #127 ) ) ;
#127 = PRODUCT_DEFINITION_FORMATION_WITH_SPECIFIED_SOURCE ( '任何', '', #119, .NOT_KNOWN. ) ;
#128 = DIRECTION ( 'NONE',  ( -1.000000000000000000, 0.000000000000000000, 0.000000000000000000 ) ) ;
#129 = DIRECTION ( 'NONE',  ( 1.000000000000000000, 0.000000000000000000, 0.000000000000000000 ) ) ;
#130 = EDGE_CURVE ( 'NONE', #142, #213, #227, .T. ) ;
#131 = PRODUCT_DEFINITION_SHAPE ( 'NONE', 'NONE',  #81 ) ;
#132 = AXIS2_PLACEMENT_3D ( 'NONE', #100, #9, #154 ) ;
#133 = ORIENTED_EDGE ( 'NONE', *, *, #58, .T. ) ;
#134 = DIRECTION ( 'NONE',  ( 0.000000000000000000, -0.000000000000000000, -1.000000000000000000 ) ) ;
#135 = VERTEX_POINT ( 'NONE', #47 ) ;
#136 = APPROVAL_DATE_TIME ( #77, #152 ) ;
#137 = DIRECTION ( 'NONE',  ( -0.000000000000000000, -0.000000000000000000, -1.000000000000000000 ) ) ;
#138 = ORIENTED_EDGE ( 'NONE', *, *, #221, .T. ) ;
#139 = CARTESIAN_POINT ( 'NONE',  ( 50.00000000000000000, -58.00000000000000000, -44.00000000000000000 ) ) ;
#140 = DIRECTION ( 'NONE',  ( -0.000000000000000000, -0.000000000000000000, -1.000000000000000000 ) ) ;
#141 = VERTEX_POINT ( 'NONE', #113 ) ;
#142 = VERTEX_POINT ( 'NONE', #29 ) ;
#143 = DIRECTION ( 'NONE',  ( 0.000000000000000000, 1.000000000000000000, 0.000000000000000000 ) ) ;
#144 = ORIENTED_EDGE ( 'NONE', *, *, #158, .T. ) ;
#145 = DATE_AND_TIME ( #72, #219 ) ;
#146 = VECTOR ( 'NONE', #7, 1000.000000000000000 ) ;
#147 = PERSON_AND_ORGANIZATION ( #12, #176 ) ;
#148 = EDGE_CURVE ( 'NONE', #213, #209, #60, .T. ) ;
#149 = PERSON_AND_ORGANIZATION ( #12, #176 ) ;
#150 = APPROVAL_PERSON_ORGANIZATION ( #116, #182, #16 ) ;
#151 = ORIENTED_EDGE ( 'NONE', *, *, #55, .T. ) ;
#152 = APPROVAL ( #61, '未指定' ) ;
#153 = PERSON_AND_ORGANIZATION ( #12, #176 ) ;
#154 = DIRECTION ( 'NONE',  ( -1.000000000000000000, 0.000000000000000000, -0.000000000000000000 ) ) ;
#155 = ORIENTED_EDGE ( 'NONE', *, *, #91, .T. ) ;
#156 = CARTESIAN_POINT ( 'NONE',  ( -50.00000000000000000, -58.00000000000000000, -46.00000000000000000 ) ) ;
#157 = VECTOR ( 'NONE', #102, 1000.000000000000000 ) ;
#158 = EDGE_CURVE ( 'NONE', #209, #34, #198, .T. ) ;
#159 = DIRECTION ( 'NONE',  ( 0.000000000000000000, 1.000000000000000000, 0.000000000000000000 ) ) ;
#160 = ORIENTED_EDGE ( 'NONE', *, *, #221, .F. ) ;
#161 = CALENDAR_DATE ( 2026, 3, 5 ) ;
#162 = SECURITY_CLASSIFICATION ( '', '', #110 ) ;
#163 = PERSON_AND_ORGANIZATION_ROLE ( 'creator' ) ;
#164 = ADVANCED_FACE ( 'NONE', ( #218 ), #237, .F. ) ;
#165 = MECHANICAL_CONTEXT ( 'NONE', #3, 'mechanical' ) ;
#166 = VECTOR ( 'NONE', #137, 1000.000000000000000 ) ;
#167 = AXIS2_PLACEMENT_3D ( 'NONE', #183, #128, #75 ) ;
#168 = CC_DESIGN_PERSON_AND_ORGANIZATION_ASSIGNMENT ( #92, #24, ( #162 ) ) ;
#169 = CC_DESIGN_APPROVAL ( #152, ( #162 ) ) ;
#170 = DATE_AND_TIME ( #188, #15 ) ;
#171 = COORDINATED_UNIVERSAL_TIME_OFFSET ( 8, 0, .AHEAD. ) ;
#172 = SHAPE_DEFINITION_REPRESENTATION ( #131, #195 ) ;
#173 = DIRECTION ( 'NONE',  ( 0.000000000000000000, -0.000000000000000000, 1.000000000000000000 ) ) ;
#174 = CARTESIAN_POINT ( 'NONE',  ( -50.00000000000000000, -58.00000000000000000, -44.00000000000000000 ) ) ;
#175 = ORIENTED_EDGE ( 'NONE', *, *, #130, .F. ) ;
#176 = ORGANIZATION ( '未指定', '未指定', '' ) ;
#177 = PLANE ( 'NONE',  #228 ) ;
#178 = EDGE_LOOP ( 'NONE', ( #191, #215, #175, #13 ) ) ;
#179 = VECTOR ( 'NONE', #143, 1000.000000000000000 ) ;
#180 = LINE ( 'NONE', #139, #220 ) ;
#181 = COORDINATED_UNIVERSAL_TIME_OFFSET ( 8, 0, .AHEAD. ) ;
#182 = APPROVAL ( #35, '未指定' ) ;
#183 = CARTESIAN_POINT ( 'NONE',  ( 50.00000000000000000, -58.00000000000000000, -44.00000000000000000 ) ) ;
#184 = DIRECTION ( 'NONE',  ( -1.000000000000000000, 0.000000000000000000, -0.000000000000000000 ) ) ;
#185 = CARTESIAN_POINT ( 'NONE',  ( 50.00000000000000000, -58.00000000000000000, -46.00000000000000000 ) ) ;
#186 = VECTOR ( 'NONE', #14, 1000.000000000000000 ) ;
#187 = COORDINATED_UNIVERSAL_TIME_OFFSET ( 8, 0, .AHEAD. ) ;
#188 = CALENDAR_DATE ( 2026, 3, 5 ) ;
#189 = FACE_OUTER_BOUND ( 'NONE', #178, .T. ) ;
#190 = DATE_AND_TIME ( #95, #56 ) ;
#191 = ORIENTED_EDGE ( 'NONE', *, *, #231, .T. ) ;
#192 = DIRECTION ( 'NONE',  ( 0.000000000000000000, -1.000000000000000000, 0.000000000000000000 ) ) ;
#193 = EDGE_LOOP ( 'NONE', ( #112, #85, #199, #120 ) ) ;
#194 = PLANE ( 'NONE',  #74 ) ;
#195 = ADVANCED_BREP_SHAPE_REPRESENTATION ( 'MiniPal_finished_robot', ( #124, #123 ), #107 ) ;
#196 = CC_DESIGN_APPROVAL ( #182, ( #81 ) ) ;
#197 = ORIENTED_EDGE ( 'NONE', *, *, #89, .F. ) ;
#198 = LINE ( 'NONE', #185, #179 ) ;
#199 = ORIENTED_EDGE ( 'NONE', *, *, #58, .F. ) ;
#200 = CARTESIAN_POINT ( 'NONE',  ( -50.00000000000000000, -58.00000000000000000, -46.00000000000000000 ) ) ;
#201 = APPROVAL_PERSON_ORGANIZATION ( #93, #152, #226 ) ;
#202 = FACE_OUTER_BOUND ( 'NONE', #114, .T. ) ;
#203 = CC_DESIGN_PERSON_AND_ORGANIZATION_ASSIGNMENT ( #147, #214, ( #119 ) ) ;
#204 = LINE ( 'NONE', #90, #186 ) ;
#205 = ADVANCED_FACE ( 'NONE', ( #202 ), #38, .F. ) ;
#206 = LINE ( 'NONE', #79, #1 ) ;
#207 = PERSON_AND_ORGANIZATION ( #12, #176 ) ;
#208 = DIRECTION ( 'NONE',  ( -0.000000000000000000, -0.000000000000000000, -1.000000000000000000 ) ) ;
#209 = VERTEX_POINT ( 'NONE', #232 ) ;
#210 = DIRECTION ( 'NONE',  ( 1.000000000000000000, 0.000000000000000000, 0.000000000000000000 ) ) ;
#211 = CARTESIAN_POINT ( 'NONE',  ( -50.00000000000000000, -56.00000000000000000, -46.00000000000000000 ) ) ;
#212 = EDGE_LOOP ( 'NONE', ( #84, #217, #109, #155 ) ) ;
#213 = VERTEX_POINT ( 'NONE', #105 ) ;
#214 = PERSON_AND_ORGANIZATION_ROLE ( 'design_owner' ) ;
#215 = ORIENTED_EDGE ( 'NONE', *, *, #148, .F. ) ;
#216 = DATE_AND_TIME ( #161, #78 ) ;
#217 = ORIENTED_EDGE ( 'NONE', *, *, #8, .F. ) ;
#218 = FACE_OUTER_BOUND ( 'NONE', #68, .T. ) ;
#219 = LOCAL_TIME ( 21, 28, 46.00000000000000000, #235 ) ;
#220 = VECTOR ( 'NONE', #159, 1000.000000000000000 ) ;
#221 = EDGE_CURVE ( 'NONE', #135, #142, #204, .T. ) ;
#222 = DATE_TIME_ROLE ( 'classification_date' ) ;
#223 = CARTESIAN_POINT ( 'NONE',  ( 50.00000000000000000, -56.00000000000000000, -46.00000000000000000 ) ) ;
#224 = COORDINATED_UNIVERSAL_TIME_OFFSET ( 8, 0, .AHEAD. ) ;
#225 = DIRECTION ( 'NONE',  ( 0.000000000000000000, 0.000000000000000000, -1.000000000000000000 ) ) ;
#226 = APPROVAL_ROLE ( '' ) ;
#227 = LINE ( 'NONE', #65, #41 ) ;
#228 = AXIS2_PLACEMENT_3D ( 'NONE', #111, #11, #225 ) ;
#229 = FACE_OUTER_BOUND ( 'NONE', #212, .T. ) ;
#230 = FACE_OUTER_BOUND ( 'NONE', #45, .T. ) ;
#231 = EDGE_CURVE ( 'NONE', #141, #209, #122, .T. ) ;
#232 = CARTESIAN_POINT ( 'NONE',  ( 50.00000000000000000, -58.00000000000000000, -46.00000000000000000 ) ) ;
#233 = CC_DESIGN_APPROVAL ( #70, ( #127 ) ) ;
#234 = VERTEX_POINT ( 'NONE', #20 ) ;
#235 = COORDINATED_UNIVERSAL_TIME_OFFSET ( 8, 0, .AHEAD. ) ;
#236 = CC_DESIGN_PERSON_AND_ORGANIZATION_ASSIGNMENT ( #207, #44, ( #127 ) ) ;
#237 = PLANE ( 'NONE',  #167 ) ;
ENDSEC;
END-ISO-10303-21;
